<?xml version="1.0" encoding="UTF-8" standalone="no"?><!-- Generator: Gravit.io --><svg xmlns="http://www.w3.org/2000/svg" xmlns:xlink="http://www.w3.org/1999/xlink" style="isolation:isolate" viewBox="0 0 16 16" width="16pt" height="16pt"><defs><clipPath id="_clipPath_UvaeFVtfHJ3FMZeM0YVFtsUT6AoZTdFy"><rect width="16" height="16"/></clipPath></defs><g clip-path="url(#_clipPath_UvaeFVtfHJ3FMZeM0YVFtsUT6AoZTdFy)"><path d=" M 16 8 C 16 3.582 12.418 0 8 0 C 3.582 0 0 3.582 0 8 C 0 12.418 3.582 16 8 16 C 12.418 16 16 12.418 16 8 Z  M 8.5 11.5 C 8.5 11.776 8.276 12 8 12 C 7.724 12 7.5 11.776 7.5 11.5 L 7.5 5.707 L 5.354 7.854 C 5.158 8.05 4.842 8.05 4.646 7.854 C 4.45 7.658 4.45 7.342 4.646 7.146 L 7.646 4.146 C 7.74 4.052 7.867 3.999 8 3.999 C 8.133 3.999 8.26 4.052 8.354 4.146 L 11.354 7.146 C 11.55 7.342 11.55 7.658 11.354 7.854 C 11.158 8.05 10.842 8.05 10.646 7.854 L 8.5 5.707 L 8.5 11.5 L 8.5 11.5 Z " fill="rgb(60,172,16)"/></g></svg>