<?xml version="1.0" encoding="utf-8"?>
<!-- Generator: Adobe Illustrator 24.2.3, SVG Export Plug-In . SVG Version: 6.00 Build 0)  -->
<svg version="1.1" id="Layer_1" xmlns="http://www.w3.org/2000/svg" xmlns:xlink="http://www.w3.org/1999/xlink" x="0px" y="0px"
	 viewBox="0 0 150 150" style="enable-background:new 0 0 150 150;" xml:space="preserve">
<style type="text/css">
	.st0{fill:#321B95;}
</style>
<path class="st0" d="M103.57,66.32c-0.48,0.15-0.99-0.1-1.14-0.56c-0.15-0.46,0.07-0.97,0.54-1.15c0.46-0.18,1.01,0.06,1.18,0.55
	C104.31,65.65,104.05,66.17,103.57,66.32z M104.96,67.85c-0.14-0.5-0.64-0.79-1.12-0.65c-0.48,0.14-0.77,0.63-0.64,1.1
	c0.13,0.47,0.59,0.77,1.09,0.66C104.77,68.85,105.09,68.35,104.96,67.85z M105.37,71.29c0.14-0.19,0.2-0.44,0.16-0.69
	c-0.09-0.51-0.56-0.85-1.05-0.75c-0.49,0.1-0.83,0.56-0.75,1.04c0.04,0.24,0.18,0.44,0.37,0.58c0.18,0.14,0.42,0.21,0.67,0.17
	C105.01,71.61,105.22,71.48,105.37,71.29z M105.85,73.38c-0.03-0.52-0.48-0.89-0.99-0.84c-0.5,0.05-0.85,0.49-0.83,0.97
	c0.03,0.48,0.47,0.86,0.97,0.84C105.51,74.34,105.89,73.9,105.85,73.38z M105.94,76.19c0.01-0.52-0.42-0.93-0.91-0.92
	c-0.51,0.01-0.89,0.41-0.91,0.9c-0.02,0.48,0.38,0.9,0.88,0.92C105.5,77.11,105.92,76.71,105.94,76.19z M105.77,78.99
	c0.04-0.52-0.33-0.97-0.83-1c-0.5-0.03-0.94,0.33-0.98,0.81c-0.06,0.48,0.29,0.93,0.79,1C105.25,79.87,105.72,79.51,105.77,78.99z
	 M105.36,81.77c0.09-0.51-0.24-0.99-0.73-1.07c-0.5-0.08-0.97,0.25-1.05,0.72c-0.08,0.48,0.21,0.95,0.71,1.06
	C104.76,82.6,105.28,82.28,105.36,81.77z M104.28,85.06c0.2-0.11,0.36-0.31,0.43-0.56c0.14-0.5-0.14-1-0.63-1.13
	c-0.48-0.12-0.99,0.16-1.12,0.63c-0.07,0.23-0.03,0.48,0.09,0.68c0.11,0.2,0.29,0.37,0.53,0.44
	C103.82,85.2,104.06,85.17,104.28,85.06z M103.83,87.16c0.19-0.48-0.06-1.01-0.54-1.18c-0.47-0.16-0.98,0.08-1.16,0.53
	c-0.17,0.45,0.06,0.98,0.52,1.17C103.11,87.88,103.64,87.64,103.83,87.16z M102.72,89.74c0.24-0.46,0.02-1.02-0.44-1.22
	c-0.47-0.21-0.98,0-1.2,0.43c-0.22,0.43-0.03,0.98,0.41,1.21C101.94,90.39,102.48,90.2,102.72,89.74z M101.39,92.21
	c0.26-0.45,0.1-1.02-0.33-1.26c-0.44-0.24-0.99-0.1-1.23,0.33c-0.26,0.41-0.12,0.96,0.3,1.24
	C100.55,92.79,101.12,92.65,101.39,92.21z M99.85,94.55c0.3-0.43,0.2-1-0.22-1.28c-0.42-0.28-0.98-0.18-1.26,0.21
	c-0.28,0.4-0.21,0.95,0.19,1.26C98.96,95.05,99.55,94.98,99.85,94.55z M98.11,96.76c0.34-0.4,0.29-0.97-0.1-1.29
	c-0.39-0.32-0.96-0.27-1.28,0.1c-0.31,0.37-0.28,0.93,0.09,1.28C97.18,97.18,97.78,97.16,98.11,96.76z M96.18,98.8
	c0.19-0.18,0.28-0.42,0.29-0.65c0-0.24-0.09-0.47-0.27-0.65c-0.18-0.18-0.41-0.26-0.64-0.26c-0.23,0-0.46,0.08-0.64,0.25
	c-0.35,0.34-0.36,0.91-0.02,1.28C95.23,99.15,95.81,99.16,96.18,98.8z M94.09,100.66c0.41-0.32,0.45-0.92,0.12-1.29
	c-0.34-0.38-0.88-0.41-1.27-0.12c-0.38,0.3-0.44,0.87-0.14,1.27C93.1,100.92,93.68,100.99,94.09,100.66z M91.84,102.34
	c0.42-0.3,0.53-0.88,0.23-1.28c-0.3-0.41-0.86-0.51-1.25-0.23c-0.41,0.26-0.52,0.82-0.25,1.24
	C90.83,102.51,91.4,102.63,91.84,102.34z M89.44,103.81c0.45-0.26,0.61-0.82,0.35-1.25c-0.26-0.43-0.81-0.59-1.23-0.34
	c-0.42,0.25-0.59,0.77-0.36,1.23C88.43,103.89,88.99,104.07,89.44,103.81z M86.93,105.06c0.48-0.21,0.68-0.75,0.45-1.21
	c-0.22-0.45-0.75-0.64-1.2-0.45c-0.44,0.2-0.65,0.73-0.46,1.2S86.46,105.27,86.93,105.06z M84.33,106.1
	c0.49-0.17,0.73-0.71,0.55-1.18c-0.18-0.47-0.69-0.7-1.15-0.54c-0.46,0.15-0.71,0.66-0.56,1.14
	C83.31,106.01,83.83,106.27,84.33,106.1z M81.64,106.91c0.5-0.14,0.79-0.64,0.65-1.12c-0.14-0.48-0.63-0.77-1.1-0.64
	c-0.47,0.13-0.77,0.59-0.66,1.09C80.64,106.72,81.14,107.05,81.64,106.91z M78.2,107.32c0.19,0.14,0.44,0.2,0.69,0.16
	c0.51-0.09,0.85-0.56,0.75-1.05c-0.1-0.49-0.56-0.83-1.04-0.75c-0.24,0.04-0.44,0.18-0.58,0.37c-0.14,0.18-0.21,0.42-0.17,0.67
	C77.88,106.97,78.01,107.18,78.2,107.32z M76.1,107.81c0.52-0.03,0.89-0.48,0.84-0.99c-0.05-0.5-0.49-0.85-0.97-0.83
	c-0.48,0.03-0.86,0.47-0.84,0.97S75.59,107.84,76.1,107.81z M73.3,107.89c0.52,0.01,0.93-0.42,0.92-0.91
	c-0.01-0.51-0.41-0.89-0.9-0.91c-0.48-0.02-0.9,0.38-0.92,0.88C72.38,107.45,72.78,107.88,73.3,107.89z M70.5,107.73
	c0.52,0.04,0.97-0.33,1-0.83c0.03-0.5-0.33-0.94-0.81-0.98c-0.48-0.06-0.93,0.29-1,0.79C69.62,107.21,69.98,107.67,70.5,107.73z
	 M67.72,107.32c0.51,0.09,0.99-0.24,1.07-0.73c0.08-0.5-0.25-0.97-0.72-1.05c-0.48-0.08-0.95,0.21-1.06,0.71
	C66.89,106.72,67.21,107.23,67.72,107.32z M64.43,106.23c0.11,0.2,0.31,0.36,0.56,0.43c0.5,0.14,1-0.14,1.13-0.63
	c0.12-0.48-0.16-0.99-0.63-1.12c-0.23-0.07-0.48-0.03-0.68,0.09c-0.2,0.11-0.37,0.29-0.44,0.53
	C64.29,105.77,64.32,106.02,64.43,106.23z M62.33,105.78c0.48,0.19,1.01-0.06,1.18-0.54c0.16-0.47-0.08-0.98-0.53-1.16
	c-0.45-0.17-0.98,0.06-1.17,0.52S61.84,105.59,62.33,105.78z M59.75,104.67c0.46,0.24,1.02,0.02,1.22-0.44
	c0.21-0.47,0-0.98-0.43-1.2c-0.43-0.22-0.98-0.03-1.21,0.41C59.1,103.89,59.29,104.44,59.75,104.67z M57.28,103.35
	c0.45,0.26,1.02,0.1,1.26-0.33c0.24-0.44,0.1-0.99-0.33-1.23c-0.41-0.26-0.96-0.12-1.24,0.3S56.84,103.07,57.28,103.35z
	 M54.93,101.8c0.43,0.3,1,0.2,1.28-0.22s0.18-0.98-0.21-1.26c-0.4-0.28-0.95-0.21-1.26,0.19C54.43,100.91,54.51,101.5,54.93,101.8z
	 M52.73,100.06c0.4,0.34,0.97,0.29,1.29-0.1c0.32-0.39,0.27-0.96-0.1-1.28c-0.37-0.31-0.93-0.28-1.28,0.09
	C52.3,99.14,52.33,99.73,52.73,100.06z M50.69,98.14c0.18,0.19,0.42,0.28,0.65,0.29c0.24,0,0.47-0.09,0.65-0.27
	c0.18-0.18,0.26-0.41,0.26-0.64c0-0.23-0.08-0.46-0.25-0.64c-0.34-0.35-0.91-0.36-1.28-0.02C50.34,97.19,50.33,97.76,50.69,98.14z
	 M48.82,96.04c0.32,0.41,0.92,0.45,1.29,0.12c0.38-0.34,0.41-0.88,0.12-1.27c-0.3-0.38-0.87-0.44-1.27-0.14
	C48.56,95.06,48.5,95.63,48.82,96.04z M47.14,93.79c0.3,0.42,0.88,0.53,1.28,0.23s0.51-0.86,0.23-1.25
	c-0.26-0.41-0.82-0.52-1.25-0.25C46.98,92.78,46.86,93.35,47.14,93.79z M45.68,91.4c0.26,0.45,0.82,0.61,1.25,0.35
	c0.43-0.26,0.59-0.81,0.34-1.23c-0.25-0.42-0.77-0.59-1.23-0.36C45.6,90.38,45.41,90.95,45.68,91.4z M44.42,88.89
	c0.21,0.48,0.75,0.68,1.21,0.45c0.45-0.22,0.64-0.75,0.45-1.2c-0.2-0.44-0.73-0.65-1.2-0.46C44.42,87.87,44.21,88.41,44.42,88.89z
	 M43.38,86.28c0.17,0.49,0.71,0.73,1.18,0.55c0.47-0.18,0.7-0.69,0.54-1.15c-0.15-0.46-0.66-0.71-1.14-0.56
	C43.48,85.27,43.22,85.79,43.38,86.28z M42.57,83.6c0.14,0.5,0.64,0.79,1.12,0.65c0.48-0.14,0.77-0.63,0.64-1.1
	c-0.13-0.47-0.59-0.77-1.09-0.66C42.76,82.59,42.44,83.09,42.57,83.6z M42.16,80.16c-0.14,0.19-0.2,0.44-0.16,0.69
	c0.09,0.51,0.56,0.85,1.05,0.75c0.49-0.1,0.83-0.56,0.75-1.04c-0.04-0.24-0.18-0.44-0.37-0.58c-0.18-0.14-0.42-0.21-0.67-0.17
	C42.52,79.83,42.31,79.97,42.16,80.16z M41.68,78.06c0.03,0.52,0.48,0.89,0.99,0.84c0.5-0.05,0.85-0.49,0.83-0.97
	c-0.03-0.48-0.47-0.86-0.97-0.84C42.03,77.1,41.65,77.54,41.68,78.06z M41.6,75.25c-0.01,0.52,0.42,0.93,0.91,0.92
	c0.51-0.01,0.89-0.41,0.91-0.9c0.02-0.48-0.38-0.9-0.88-0.92C42.03,74.33,41.61,74.73,41.6,75.25z M41.76,72.45
	c-0.04,0.52,0.33,0.97,0.83,1c0.5,0.03,0.94-0.33,0.98-0.81c0.06-0.48-0.29-0.93-0.79-1C42.28,71.57,41.82,71.93,41.76,72.45z
	 M42.17,69.67c-0.09,0.51,0.24,0.99,0.73,1.07s0.97-0.25,1.05-0.72c0.08-0.48-0.21-0.95-0.71-1.06
	C42.77,68.85,42.25,69.16,42.17,69.67z M43.26,66.39c-0.2,0.11-0.36,0.31-0.43,0.56c-0.14,0.5,0.14,1,0.63,1.13
	c0.48,0.12,0.99-0.16,1.12-0.63c0.07-0.23,0.03-0.48-0.09-0.68c-0.11-0.2-0.29-0.37-0.53-0.44C43.72,66.25,43.47,66.28,43.26,66.39z
	 M43.71,64.28c-0.19,0.48,0.06,1.01,0.54,1.18c0.47,0.16,0.98-0.08,1.16-0.53c0.17-0.45-0.06-0.98-0.52-1.17
	C44.42,63.56,43.89,63.8,43.71,64.28z M44.82,61.71c-0.24,0.46-0.02,1.02,0.44,1.22c0.47,0.21,0.98,0,1.2-0.43
	c0.22-0.43,0.03-0.98-0.41-1.21C45.6,61.05,45.05,61.24,44.82,61.71z M46.14,59.23c-0.26,0.45-0.1,1.02,0.33,1.26
	c0.44,0.24,0.99,0.1,1.23-0.33c0.26-0.41,0.12-0.96-0.3-1.24C46.98,58.66,46.42,58.79,46.14,59.23z M47.69,56.89
	c-0.3,0.43-0.2,1,0.22,1.28c0.42,0.28,0.98,0.18,1.26-0.21c0.28-0.4,0.21-0.95-0.19-1.26C48.58,56.39,47.98,56.46,47.69,56.89z
	 M49.43,54.69c-0.34,0.4-0.29,0.97,0.1,1.29c0.39,0.32,0.96,0.27,1.28-0.1c0.31-0.37,0.28-0.93-0.09-1.28
	C50.35,54.26,49.76,54.29,49.43,54.69z M51.35,52.65c-0.19,0.18-0.28,0.42-0.29,0.65c0,0.24,0.09,0.47,0.27,0.65
	c0.18,0.18,0.41,0.26,0.64,0.26c0.23,0,0.46-0.08,0.64-0.25c0.35-0.34,0.36-0.91,0.02-1.28C52.3,52.29,51.73,52.29,51.35,52.65z
	 M53.45,50.78c-0.41,0.32-0.45,0.92-0.12,1.29c0.34,0.38,0.88,0.41,1.27,0.12c0.38-0.3,0.44-0.87,0.14-1.27
	C54.43,50.52,53.85,50.45,53.45,50.78z M55.7,49.1c-0.42,0.3-0.53,0.88-0.23,1.28c0.3,0.41,0.86,0.51,1.25,0.23
	c0.41-0.26,0.52-0.82,0.25-1.24C56.71,48.94,56.13,48.82,55.7,49.1z M58.09,47.63c-0.45,0.26-0.61,0.82-0.35,1.25
	c0.26,0.43,0.81,0.59,1.23,0.34c0.42-0.25,0.59-0.77,0.36-1.23C59.11,47.56,58.54,47.37,58.09,47.63z M60.6,46.38
	c-0.48,0.21-0.68,0.75-0.45,1.21c0.22,0.45,0.75,0.64,1.2,0.45c0.44-0.2,0.65-0.73,0.46-1.2S61.07,46.17,60.6,46.38z M63.2,45.34
	c-0.49,0.17-0.73,0.71-0.55,1.18c0.18,0.47,0.69,0.7,1.15,0.54c0.46-0.15,0.71-0.66,0.56-1.14C64.22,45.43,63.7,45.18,63.2,45.34z
	 M65.89,44.53c-0.5,0.14-0.79,0.64-0.65,1.12c0.14,0.48,0.63,0.77,1.1,0.64c0.47-0.13,0.77-0.59,0.66-1.09
	C66.9,44.72,66.39,44.4,65.89,44.53z M69.33,44.12c-0.19-0.14-0.44-0.2-0.69-0.16c-0.51,0.09-0.85,0.56-0.75,1.05
	c0.1,0.49,0.56,0.83,1.04,0.75c0.24-0.04,0.44-0.18,0.58-0.37c0.14-0.18,0.21-0.42,0.17-0.67C69.65,44.48,69.52,44.26,69.33,44.12z
	 M71.43,43.64c-0.52,0.03-0.89,0.48-0.84,0.99c0.05,0.5,0.49,0.85,0.97,0.83c0.48-0.03,0.86-0.47,0.84-0.97S71.95,43.6,71.43,43.64z
	 M74.23,43.55c-0.52-0.01-0.93,0.42-0.92,0.91c0.01,0.51,0.41,0.89,0.9,0.91c0.48,0.02,0.9-0.38,0.92-0.88
	C75.15,43.99,74.75,43.57,74.23,43.55z M77.04,43.71c-0.52-0.04-0.97,0.33-1,0.83c-0.03,0.5,0.33,0.94,0.81,0.98
	c0.48,0.06,0.93-0.29,1-0.79C77.91,44.24,77.55,43.77,77.04,43.71z M79.81,44.13c-0.51-0.09-0.99,0.24-1.07,0.73
	c-0.08,0.5,0.25,0.97,0.72,1.05c0.48,0.08,0.95-0.21,1.06-0.71C80.64,44.72,80.33,44.21,79.81,44.13z M83.1,45.21
	c-0.11-0.2-0.31-0.36-0.56-0.43c-0.5-0.14-1,0.14-1.13,0.63c-0.12,0.48,0.16,0.99,0.63,1.12c0.23,0.07,0.48,0.03,0.68-0.09
	c0.2-0.11,0.37-0.29,0.44-0.53C83.24,45.67,83.21,45.42,83.1,45.21z M85.2,45.66c-0.48-0.19-1.01,0.06-1.18,0.54
	c-0.16,0.47,0.08,0.98,0.53,1.16c0.45,0.17,0.98-0.06,1.17-0.52S85.69,45.85,85.2,45.66z M87.78,46.77
	c-0.46-0.24-1.02-0.02-1.22,0.44c-0.21,0.47,0,0.98,0.43,1.2c0.43,0.22,0.98,0.03,1.21-0.41C88.43,47.55,88.25,47,87.78,46.77z
	 M90.26,48.1c-0.45-0.26-1.02-0.1-1.26,0.33c-0.24,0.44-0.1,0.99,0.33,1.23c0.41,0.26,0.96,0.12,1.24-0.3
	C90.83,48.94,90.7,48.37,90.26,48.1z M92.6,49.64c-0.43-0.3-1-0.2-1.28,0.22s-0.18,0.98,0.21,1.26c0.4,0.28,0.95,0.21,1.26-0.19
	C93.1,50.53,93.02,49.94,92.6,49.64z M94.8,51.38c-0.4-0.34-0.97-0.29-1.29,0.1c-0.32,0.39-0.27,0.96,0.1,1.28
	c0.37,0.31,0.93,0.28,1.28-0.09C95.23,52.3,95.2,51.71,94.8,51.38z M96.84,53.31c-0.18-0.19-0.42-0.28-0.65-0.29
	c-0.24,0-0.47,0.09-0.65,0.27c-0.18,0.18-0.26,0.41-0.26,0.64c0,0.23,0.08,0.46,0.25,0.64c0.34,0.35,0.91,0.36,1.28,0.02
	C97.2,54.26,97.2,53.68,96.84,53.31z M98.71,55.4c-0.32-0.41-0.92-0.45-1.29-0.12c-0.38,0.34-0.41,0.88-0.12,1.27
	c0.3,0.38,0.87,0.44,1.27,0.14C98.97,56.39,99.03,55.81,98.71,55.4z M100.39,57.65c-0.3-0.42-0.88-0.53-1.28-0.23
	c-0.41,0.3-0.51,0.86-0.23,1.25c0.26,0.41,0.82,0.52,1.24,0.25C100.55,58.66,100.67,58.09,100.39,57.65z M101.85,60.05
	c-0.26-0.45-0.82-0.61-1.25-0.35c-0.43,0.26-0.59,0.81-0.34,1.23c0.25,0.42,0.77,0.59,1.23,0.36
	C101.93,61.06,102.12,60.49,101.85,60.05z M103.11,62.55c-0.21-0.48-0.75-0.68-1.21-0.45c-0.45,0.22-0.64,0.75-0.45,1.2
	c0.2,0.44,0.73,0.65,1.2,0.46C103.11,63.57,103.32,63.03,103.11,62.55z M101.3,88.68c-0.11,0.24-0.23,0.48-0.35,0.72
	c-1.56-0.61-2.97-0.88-4.03-0.83c0.31,1.41,0.54,3.11,0.5,5c-0.01,0.33,0.06,0.71,0.18,1.13c-0.19,0.24-0.39,0.48-0.59,0.72
	c-0.27-0.69-0.4-1.33-0.39-1.86c0.04-1.84-0.2-3.5-0.5-4.88c-0.14,0.03-0.27,0.07-0.38,0.12l-0.03,0.01
	c-3.36,1.45-6.39,1.52-7.51,1.49c0.02,1.12-0.08,4.15-1.57,7.49c-0.03,0.07-0.06,0.15-0.08,0.23c1.41,0.33,3.14,0.59,5.06,0.55
	c0.54-0.01,1.18,0.12,1.87,0.39c-0.24,0.2-0.48,0.4-0.73,0.59c-0.41-0.12-0.79-0.18-1.12-0.18c-2,0.04-3.78-0.22-5.23-0.56
	c-0.1,1.08,0.14,2.57,0.78,4.23c-0.24,0.12-0.48,0.23-0.73,0.34c-0.71-1.85-0.97-3.53-0.83-4.77c-1.29-0.35-2.24-0.74-2.75-0.97
	c-0.21,0.55-0.65,1.58-1.38,2.83c0.92,0.8,1.85,2.12,2.59,3.85c-0.25,0.09-0.5,0.18-0.76,0.26c-0.67-1.53-1.47-2.7-2.26-3.42
	c-0.78,1.22-1.82,2.58-3.18,3.89c-0.22,0.21-0.43,0.5-0.63,0.85c-0.31,0.04-0.63,0.07-0.94,0.1c0.29-0.64,0.64-1.16,1.02-1.52
	c1.33-1.27,2.34-2.62,3.09-3.81c-0.13-0.08-0.26-0.15-0.38-0.2c-3.4-1.35-5.59-3.44-6.36-4.26c-0.78,0.81-3,2.87-6.41,4.19
	l-0.05,0.02c-0.06,0.02-0.12,0.06-0.18,0.09c0.76,1.23,1.81,2.63,3.19,3.97c0.37,0.36,0.72,0.88,1.01,1.53
	c-0.31-0.02-0.62-0.06-0.94-0.09c-0.19-0.35-0.41-0.65-0.63-0.86c-1.44-1.38-2.52-2.83-3.31-4.09c-0.84,0.7-1.72,1.93-2.45,3.55
	c-0.25-0.09-0.51-0.18-0.76-0.27c0.81-1.82,1.81-3.19,2.79-3.97c-0.66-1.16-1.07-2.11-1.26-2.63c-0.1,0.05-0.22,0.1-0.36,0.16
	c-0.62,0.26-1.51,0.58-2.62,0.87c0.08,1.28-0.23,2.92-0.9,4.6c-0.24-0.11-0.48-0.23-0.72-0.35c0.59-1.49,0.88-2.94,0.83-4.06
	c-1.42,0.31-3.11,0.54-5,0.5c-0.32-0.01-0.7,0.06-1.11,0.18c-0.24-0.2-0.48-0.4-0.72-0.6c0.68-0.26,1.3-0.39,1.85-0.38
	c1.84,0.04,3.5-0.19,4.88-0.5c-0.04-0.15-0.08-0.29-0.13-0.42c-1.45-3.36-1.52-6.38-1.49-7.51c-1.12,0.02-4.15-0.08-7.49-1.57
	c-0.07-0.03-0.15-0.06-0.23-0.09c-0.33,1.41-0.59,3.14-0.55,5.06c0.01,0.52-0.12,1.14-0.38,1.82c-0.2-0.24-0.4-0.49-0.59-0.73
	c0.11-0.39,0.17-0.76,0.17-1.07c-0.04-2,0.22-3.78,0.55-5.23c-0.99-0.09-2.43,0.09-4.2,0.76c-0.12-0.24-0.24-0.48-0.35-0.73
	c1.76-0.68,3.46-0.96,4.75-0.82c0.35-1.29,0.74-2.24,0.97-2.75c-0.55-0.21-1.58-0.65-2.83-1.38c-0.84,0.95-2.2,1.88-3.85,2.59
	c-0.09-0.25-0.18-0.5-0.27-0.76c1.45-0.64,2.67-1.45,3.42-2.26c-1.22-0.78-2.58-1.82-3.89-3.18c-0.22-0.23-0.53-0.45-0.89-0.65
	c-0.04-0.31-0.07-0.62-0.1-0.93c0.67,0.3,1.2,0.65,1.57,1.03c1.28,1.33,2.62,2.34,3.81,3.09c0.08-0.13,0.15-0.26,0.2-0.39
	c1.35-3.4,3.44-5.59,4.26-6.36c-0.81-0.78-2.88-3-4.19-6.41c-0.03-0.08-0.06-0.15-0.1-0.23c-1.23,0.77-2.63,1.81-3.97,3.2
	c-0.38,0.4-0.92,0.74-1.59,1.04c0.03-0.31,0.05-0.62,0.09-0.93c0.38-0.2,0.69-0.43,0.92-0.66c1.38-1.44,2.82-2.51,4.09-3.31
	c-0.73-0.87-2.01-1.76-3.55-2.45c0.09-0.25,0.18-0.51,0.28-0.76c1.74,0.77,3.15,1.77,3.97,2.79c0.9-0.51,1.69-0.88,2.26-1.12
	c0.14-0.06,0.26-0.11,0.37-0.15c-0.24-0.54-0.66-1.58-1.03-2.98c-1.22,0.08-2.82-0.2-4.57-0.9c0.12-0.24,0.23-0.48,0.35-0.72
	c1.55,0.61,2.96,0.87,4.03,0.83c-0.31-1.41-0.54-3.11-0.5-5c0.01-0.31-0.05-0.66-0.16-1.05c0.2-0.25,0.4-0.49,0.6-0.73
	c0.25,0.67,0.38,1.27,0.37,1.79c-0.04,1.84,0.19,3.51,0.5,4.88c0.14-0.03,0.27-0.07,0.39-0.12l0.03-0.01
	c0.08-0.03,0.16-0.07,0.24-0.1c3.26-1.35,6.18-1.42,7.27-1.39c-0.02-1.12,0.08-4.15,1.57-7.49c0.03-0.07,0.06-0.15,0.08-0.23
	c-1.41-0.33-3.14-0.59-5.06-0.55c-0.53,0.01-1.14-0.11-1.81-0.36c0.24-0.2,0.48-0.4,0.73-0.6c0.39,0.11,0.75,0.17,1.06,0.16
	c2-0.04,3.78,0.22,5.23,0.56c0.1-1.09-0.14-2.58-0.78-4.24c0.24-0.12,0.48-0.24,0.72-0.35c0.72,1.86,0.98,3.54,0.84,4.79
	c1.29,0.35,2.24,0.74,2.75,0.97c0.21-0.55,0.65-1.58,1.38-2.83c-0.93-0.81-1.86-2.15-2.61-3.89c0.25-0.09,0.5-0.18,0.76-0.26
	c0.67,1.55,1.49,2.74,2.28,3.47c0.78-1.22,1.82-2.58,3.18-3.89c0.24-0.23,0.47-0.54,0.67-0.92c0.31-0.03,0.62-0.06,0.93-0.08
	c-0.3,0.67-0.65,1.21-1.04,1.58c-1.33,1.28-2.34,2.62-3.09,3.81c0.13,0.08,0.26,0.15,0.39,0.2c3.4,1.35,5.59,3.44,6.36,4.26
	c0.78-0.81,3-2.88,6.41-4.19L80.33,51c0,0,0,0,0,0c0.06-0.02,0.12-0.06,0.18-0.09c-0.76-1.23-1.81-2.63-3.19-3.97
	c-0.38-0.36-0.72-0.89-1.02-1.56c0.31,0.03,0.62,0.06,0.94,0.09c0.2,0.36,0.41,0.66,0.64,0.88c1.44,1.38,2.52,2.83,3.31,4.09
	c0.83-0.69,1.71-1.9,2.43-3.5c0.25,0.09,0.5,0.18,0.76,0.27c-0.8,1.79-1.8,3.14-2.77,3.91c0.66,1.16,1.07,2.11,1.26,2.63
	c0.1-0.05,0.22-0.1,0.36-0.16c0.62-0.26,1.51-0.58,2.62-0.87c-0.08-1.26,0.22-2.87,0.87-4.52c0.24,0.12,0.48,0.24,0.72,0.36
	c-0.56,1.46-0.84,2.88-0.8,3.97c1.42-0.31,3.11-0.54,5-0.5c0.3,0.01,0.64-0.05,1-0.15c0.25,0.2,0.5,0.4,0.74,0.6
	c-0.65,0.24-1.24,0.36-1.76,0.35c-1.85-0.04-3.5,0.19-4.88,0.5c0.04,0.15,0.08,0.29,0.13,0.42c1.45,3.36,1.52,6.38,1.49,7.51
	c1.12-0.02,4.15,0.08,7.49,1.57c0.07,0.03,0.15,0.06,0.23,0.09c0.33-1.41,0.59-3.14,0.55-5.06c-0.01-0.51,0.11-1.12,0.36-1.78
	c0.2,0.24,0.4,0.48,0.6,0.73c-0.11,0.38-0.16,0.73-0.16,1.04c0.04,2-0.22,3.78-0.55,5.23c1,0.09,2.45-0.09,4.23-0.77
	c0.12,0.24,0.24,0.48,0.35,0.72c-1.78,0.69-3.49,0.98-4.79,0.84c-0.35,1.29-0.74,2.24-0.97,2.75c0.55,0.21,1.58,0.65,2.83,1.38
	c0.84-0.96,2.22-1.89,3.88-2.61c0.09,0.25,0.18,0.51,0.26,0.76c-1.46,0.64-2.69,1.45-3.45,2.27c1.22,0.78,2.58,1.82,3.89,3.18
	c0.22,0.22,0.51,0.43,0.86,0.63c0.03,0.31,0.07,0.62,0.09,0.94c-0.65-0.29-1.17-0.64-1.53-1.01c-1.28-1.33-2.62-2.34-3.81-3.09
	c-0.08,0.13-0.15,0.26-0.2,0.38c-1.35,3.4-3.44,5.59-4.26,6.36c0.81,0.78,2.88,3,4.19,6.41c0.03,0.08,0.06,0.15,0.1,0.23
	c1.23-0.77,2.63-1.81,3.97-3.2c0.37-0.38,0.88-0.72,1.51-1.01c-0.03,0.32-0.06,0.63-0.09,0.94c-0.34,0.19-0.63,0.4-0.84,0.62
	c-1.38,1.44-2.82,2.51-4.09,3.31c0.73,0.87,2,1.75,3.52,2.44c-0.09,0.25-0.18,0.51-0.27,0.76c-1.72-0.77-3.13-1.77-3.95-2.78
	c-0.9,0.51-1.69,0.88-2.26,1.12c-0.14,0.06-0.26,0.11-0.37,0.15c0.24,0.54,0.66,1.58,1.03,2.98C97.95,87.7,99.55,87.98,101.3,88.68z
	 M95.76,83.92c0.54-0.22,1.28-0.56,2.12-1.04c-0.06-0.12-0.12-0.24-0.17-0.35c-1.55-4.02-4.27-6.37-4.3-6.39l-0.36-0.31l0.37-0.31
	c0.03-0.02,2.77-2.34,4.36-6.35c0.07-0.17,0.15-0.34,0.26-0.51c-1.72-1-2.99-1.41-3.02-1.42l-0.45-0.14l0.22-0.42
	c0.01-0.02,0.58-1.13,1.08-2.95c-0.13-0.04-0.25-0.08-0.36-0.13c-3.95-1.75-7.52-1.48-7.56-1.48l-0.48,0.04l0.04-0.48
	c0-0.04,0.31-3.61-1.4-7.57c-0.07-0.17-0.13-0.35-0.18-0.54c-1.02,0.27-1.84,0.57-2.42,0.81c-0.46,0.19-0.71,0.32-0.71,0.32
	l-0.42,0.22l-0.14-0.46c-0.01-0.02-0.39-1.21-1.33-2.85c-0.09,0.05-0.19,0.1-0.28,0.14l0,0l-0.07,0.03
	c-4.03,1.55-6.37,4.27-6.39,4.3l-0.31,0.36l-0.31-0.37c-0.02-0.03-2.34-2.77-6.35-4.36c-0.16-0.07-0.33-0.16-0.5-0.26
	c-1,1.73-1.41,3-1.42,3.02l-0.14,0.46l-0.42-0.22c-0.02-0.01-1.13-0.58-2.95-1.08c-0.04,0.13-0.08,0.25-0.13,0.36
	c-1.75,3.95-1.48,7.52-1.48,7.56l0.04,0.48l-0.48-0.04c-0.03,0-3.61-0.31-7.57,1.4l-0.04,0.02c-0.15,0.06-0.32,0.11-0.5,0.16
	c0.51,1.93,1.12,3.12,1.13,3.14l0.22,0.42l-0.46,0.14c0,0-0.28,0.09-0.73,0.28c-0.54,0.22-1.28,0.56-2.12,1.04
	c0.06,0.12,0.12,0.24,0.17,0.35c1.55,4.02,4.27,6.37,4.3,6.39l0.36,0.31l-0.37,0.31c-0.03,0.02-2.77,2.34-4.36,6.35
	c-0.07,0.17-0.15,0.34-0.26,0.51c1.73,1,2.99,1.41,3.02,1.42l0.46,0.14l-0.22,0.42c-0.01,0.02-0.58,1.13-1.08,2.95
	c0.13,0.04,0.25,0.08,0.36,0.13c3.94,1.75,7.52,1.48,7.56,1.48l0.48-0.04l-0.04,0.48c0,0.04-0.31,3.61,1.4,7.57
	c0.07,0.17,0.13,0.35,0.18,0.54c1.02-0.27,1.84-0.57,2.42-0.81c0.46-0.19,0.71-0.32,0.71-0.32l0.42-0.22l0.14,0.46
	c0.01,0.02,0.39,1.21,1.33,2.85c0.09-0.05,0.19-0.1,0.28-0.14l0.07-0.03c4.03-1.55,6.37-4.27,6.39-4.3l0.31-0.36l0.31,0.37
	c0.02,0.03,2.34,2.77,6.35,4.36c0.16,0.07,0.33,0.16,0.5,0.26c1-1.73,1.42-3,1.42-3.02l0.14-0.45l0.42,0.22
	c0.02,0.01,1.13,0.58,2.95,1.08c0.04-0.13,0.08-0.25,0.13-0.36c1.75-3.95,1.48-7.52,1.48-7.56l-0.04-0.48l0.48,0.04
	c0.03,0,3.61,0.31,7.57-1.4l0.04-0.02c0.15-0.06,0.32-0.11,0.5-0.16c-0.51-1.93-1.12-3.12-1.13-3.14l-0.22-0.42l0.46-0.14
	C95.03,84.19,95.3,84.11,95.76,83.92z M137.34,49.39l-0.12,0.34c-3.38,9.53-8.09,15.32-12.6,18.85c2.73,1.79,5.48,4.14,8.19,7.18
	l0.24,0.27l-0.24,0.27c-2.51,2.76-5.13,5.04-7.84,6.84c4.37,3.53,8.96,9.27,12.26,18.58l0.12,0.34l-0.33,0.16
	c-0.91,0.43-1.83,0.84-2.73,1.22c0,0,0,0,0,0c-7.85,3.25-14.34,3.84-19.48,3.22c0.63,3.09,0.92,6.68,0.68,10.85l-0.02,0.36
	l-0.36,0.02c-3.95,0.18-7.38-0.1-10.36-0.69c0.6,5.66-0.27,12.92-4.49,21.78l-0.16,0.33l-0.34-0.12
	c-9.49-3.36-15.29-8.03-18.84-12.56c-1.74,2.63-4.07,5.37-7.19,8.15L73.45,135l-0.27-0.24c-2.93-2.67-5.15-5.29-6.83-7.82
	c-3.2,3.96-8.15,8-15.79,11.16c-0.9,0.37-1.84,0.73-2.8,1.07l-0.34,0.12l-0.16-0.33c-4.36-9.14-5.1-16.58-4.42-22.23
	c-3.32,0.69-6.96,0.92-10.87,0.7l-0.36-0.02l-0.02-0.36c-0.17-3.74,0.07-7.2,0.71-10.37c-5.63,0.6-12.91-0.24-21.8-4.47l-0.33-0.16
	l0.12-0.34c3.38-9.53,8.09-15.32,12.6-18.85c-2.73-1.79-5.48-4.14-8.19-7.18l-0.24-0.27l0.24-0.27c2.51-2.76,5.13-5.04,7.84-6.84
	c-4.37-3.53-8.96-9.27-12.26-18.58l-0.12-0.34l0.33-0.16c0.91-0.43,1.83-0.84,2.73-1.22c7.85-3.25,14.34-3.84,19.48-3.22
	c-0.63-3.09-0.92-6.68-0.68-10.85l0.02-0.36l0.36-0.02c3.95-0.18,7.38,0.1,10.36,0.69c-0.6-5.66,0.27-12.92,4.49-21.78l0.16-0.33
	l0.34,0.12c9.49,3.36,15.29,8.03,18.84,12.56c1.74-2.63,4.07-5.37,7.19-8.15l0.27-0.24l0.27,0.24c2.93,2.67,5.15,5.29,6.83,7.82
	c3.2-3.96,8.15-8,15.79-11.16c0.9-0.37,1.84-0.73,2.8-1.07l0.34-0.12l0.16,0.33c4.36,9.14,5.1,16.58,4.42,22.23
	c3.32-0.69,6.96-0.92,10.87-0.7l0.36,0.02l0.02,0.36c0.17,3.74-0.07,7.2-0.71,10.37c5.63-0.6,12.91,0.24,21.8,4.47L137.34,49.39z
	 M104.56,35.55c-0.33,2.22-0.89,4.15-1.51,5.77c-0.49,1.27-1.05,2.43-1.65,3.48c1.15,1.03,2.25,2.12,3.29,3.29
	c0.88-0.51,1.83-0.98,2.85-1.4c1.87-0.77,4.13-1.45,6.8-1.82c0.63-2.97,0.94-6.32,0.79-10.08C111.32,34.6,107.79,34.85,104.56,35.55
	z M105.68,73.74c-0.02-0.28-0.03-0.56-0.05-0.84c2.14,0.59,5.24,0.71,8.71-0.12c-0.19-2.63-0.64-5.27-1.36-7.88
	c-3.27-0.44-6.27-0.11-8.81,0.71c-0.08-0.25-0.16-0.51-0.25-0.76c2.56-0.83,5.56-1.18,8.82-0.79c-0.39-1.31-0.86-2.61-1.39-3.9
	c-0.48-1.15-1-2.27-1.57-3.35c-2.4,2.97-4.99,4.67-6.86,5.6c-0.11-0.24-0.23-0.48-0.35-0.72c2.39-1.19,4.76-3.06,6.79-5.66
	c-1.38-2.5-3-4.81-4.81-6.9c-3.03,1.86-5.14,4.14-6.24,6.06c-0.18-0.21-0.37-0.42-0.55-0.63c1.18-1.97,3.28-4.2,6.25-6.04
	c-0.95-1.06-1.96-2.06-3.01-3c-1.89,3.05-4.13,5.11-6.05,6.25c-0.21-0.19-0.43-0.37-0.65-0.55c1.97-1.11,4.23-3.24,6.08-6.24
	c-2.04-1.76-4.23-3.3-6.55-4.61c-3.07,2.37-4.8,4.97-5.72,6.77c-0.24-0.12-0.48-0.24-0.72-0.35c0.93-1.82,2.66-4.43,5.68-6.84
	c-2.3-1.23-4.71-2.25-7.2-3.03c0.25,2.39,0.08,4.44-0.19,6.01c-0.18,1.01-0.43,1.95-0.72,2.82c-0.25-0.09-0.5-0.19-0.75-0.28
	c0.28-0.83,0.51-1.72,0.68-2.68c0.28-1.58,0.43-3.67,0.15-6.12c-2.7-0.78-5.49-1.29-8.32-1.49c-0.09,0.38-0.17,0.74-0.23,1.09
	c-0.56,2.98-0.41,5.64,0.11,7.55c-0.28-0.03-0.56-0.05-0.85-0.07c-0.49-2-0.61-4.66-0.05-7.63c0.06-0.32,0.13-0.65,0.21-0.99
	c-1.41-0.08-2.83-0.08-4.25,0c0.03,0.14,0.06,0.28,0.09,0.41c0.69,3.21,0.61,6.08,0.09,8.21c-0.28,0.02-0.56,0.03-0.84,0.06
	c0.54-2.02,0.66-4.89-0.03-8.1c-0.04-0.17-0.08-0.35-0.12-0.53c-2.64,0.19-5.28,0.64-7.9,1.37c-0.33,2.56-0.16,4.74,0.13,6.38
	c0.15,0.86,0.36,1.67,0.6,2.42c-0.25,0.09-0.51,0.18-0.76,0.27c-0.26-0.79-0.48-1.64-0.64-2.55c-0.29-1.63-0.46-3.77-0.17-6.28
	c-1.3,0.39-2.6,0.85-3.89,1.38c-1.15,0.48-2.26,1-3.35,1.57c1.96,1.59,3.33,3.24,4.27,4.61c0.52,0.77,0.96,1.53,1.33,2.28
	c-0.24,0.11-0.48,0.23-0.72,0.35c-0.35-0.71-0.77-1.44-1.27-2.17c-0.94-1.38-2.35-3.05-4.37-4.65c-2.51,1.39-4.83,3.01-6.93,4.83
	c0.1,0.16,0.19,0.31,0.29,0.46c1.8,2.79,3.94,4.74,5.76,5.78c-0.22,0.18-0.43,0.37-0.64,0.55c-1.89-1.13-4-3.11-5.8-5.9
	c-0.07-0.12-0.15-0.24-0.23-0.36c-1.06,0.95-2.06,1.96-3,3.01c0.3,0.19,0.59,0.37,0.85,0.55c2.52,1.72,4.32,3.69,5.38,5.47
	c-0.19,0.21-0.37,0.43-0.55,0.64c-0.98-1.72-2.76-3.72-5.28-5.45c-0.29-0.2-0.6-0.4-0.94-0.61c-1.76,2.04-3.3,4.24-4.61,6.56
	c1.54,1.99,3.14,3.39,4.47,4.33c0.76,0.54,1.51,0.99,2.25,1.37c-0.12,0.24-0.24,0.48-0.35,0.72c-0.78-0.4-1.57-0.87-2.36-1.43
	c-1.32-0.94-2.9-2.3-4.43-4.22c-1.23,2.3-2.25,4.71-3.02,7.19c3.81-0.39,6.85,0.25,8.79,0.89c-0.09,0.25-0.19,0.5-0.28,0.75
	c-1.91-0.63-4.95-1.26-8.76-0.81c-0.78,2.7-1.28,5.48-1.49,8.3c3.4,0.81,6.49,0.73,8.66,0.13c-0.02,0.28-0.05,0.57-0.06,0.85
	c-2.16,0.54-5.19,0.66-8.65-0.16c-0.08,1.41-0.08,2.83,0,4.25c3.4-0.8,6.45-0.71,8.68-0.15c0.02,0.28,0.04,0.56,0.06,0.84
	c-2.14-0.58-5.23-0.7-8.69,0.13c0.19,2.63,0.64,5.27,1.36,7.88c3.28,0.44,6.3,0.11,8.85-0.73c0.08,0.25,0.18,0.51,0.27,0.76
	c-2.57,0.85-5.59,1.2-8.88,0.81c0.39,1.31,0.86,2.61,1.39,3.9c0.48,1.15,1,2.27,1.57,3.35c2.42-2.99,5.03-4.69,6.9-5.62
	c0.11,0.24,0.23,0.49,0.34,0.73c-2.4,1.19-4.78,3.07-6.82,5.68c1.38,2.5,3,4.81,4.81,6.9c3.01-1.85,5.11-4.1,6.22-6.02
	c0.18,0.22,0.36,0.43,0.55,0.64c-1.18,1.96-3.27,4.16-6.22,5.99c0.95,1.06,1.96,2.06,3.01,3c1.86-3.01,4.08-5.06,5.98-6.21
	c0.21,0.19,0.43,0.37,0.64,0.55c-1.95,1.12-4.18,3.24-6,6.2c2.04,1.76,4.23,3.3,6.55,4.61c3.04-2.35,4.77-4.92,5.7-6.72
	c0.24,0.12,0.48,0.24,0.72,0.35c-0.94,1.82-2.67,4.41-5.66,6.79c2.3,1.23,4.71,2.25,7.2,3.03c-0.25-2.39-0.08-4.44,0.19-6.01
	c0.18-1.01,0.42-1.94,0.71-2.8c0.25,0.09,0.5,0.18,0.76,0.27c-0.28,0.82-0.51,1.71-0.68,2.67c-0.28,1.58-0.43,3.67-0.15,6.12
	c2.7,0.78,5.49,1.29,8.32,1.49c0.09-0.38,0.17-0.74,0.23-1.09c0.57-3.01,0.41-5.7-0.12-7.61c0.28,0.02,0.56,0.05,0.85,0.06
	c0.51,2.01,0.63,4.69,0.06,7.69c-0.06,0.32-0.13,0.65-0.21,0.99c1.41,0.08,2.83,0.08,4.25,0c-0.03-0.14-0.06-0.28-0.09-0.41
	c-0.7-3.25-0.61-6.14-0.07-8.28c0.28-0.02,0.56-0.04,0.84-0.06c-0.56,2.03-0.69,4.92,0.01,8.17c0.04,0.17,0.08,0.35,0.12,0.53
	c2.64-0.19,5.28-0.64,7.9-1.37c0.33-2.56,0.16-4.74-0.13-6.38c-0.15-0.87-0.36-1.68-0.61-2.44c0.25-0.08,0.51-0.17,0.76-0.26
	c0.26,0.79,0.48,1.64,0.64,2.56c0.29,1.63,0.46,3.77,0.17,6.28c1.3-0.39,2.6-0.85,3.89-1.38c1.15-0.48,2.26-1,3.35-1.57
	c-1.96-1.59-3.33-3.24-4.27-4.61c-0.52-0.76-0.96-1.52-1.33-2.26c0.24-0.11,0.49-0.22,0.73-0.34c0.35,0.71,0.77,1.43,1.26,2.15
	c0.94,1.38,2.35,3.05,4.37,4.65c2.51-1.39,4.83-3.01,6.93-4.83c-0.1-0.16-0.19-0.31-0.29-0.46c-1.78-2.76-3.89-4.7-5.71-5.75
	c0.22-0.18,0.44-0.36,0.65-0.55c1.87,1.14,3.96,3.1,5.74,5.86c0.07,0.12,0.15,0.23,0.22,0.36c1.06-0.95,2.06-1.96,3-3.01
	c-0.3-0.19-0.59-0.37-0.85-0.55c-2.5-1.71-4.3-3.67-5.36-5.43c0.19-0.21,0.37-0.43,0.55-0.65c0.98,1.71,2.76,3.7,5.27,5.42
	c0.29,0.2,0.6,0.4,0.94,0.61c1.76-2.04,3.3-4.24,4.61-6.56c-1.54-1.99-3.14-3.39-4.47-4.33c-0.77-0.55-1.54-1-2.29-1.39
	c0.12-0.24,0.23-0.48,0.34-0.73c0.79,0.4,1.61,0.88,2.42,1.46c1.32,0.94,2.9,2.3,4.43,4.22c1.23-2.3,2.25-4.71,3.02-7.19
	c-3.86,0.4-6.94-0.27-8.87-0.92c0.09-0.25,0.19-0.5,0.27-0.76c1.9,0.64,4.97,1.29,8.84,0.84c0.78-2.7,1.28-5.48,1.49-8.3
	c-3.44-0.82-6.55-0.73-8.73-0.11c0.03-0.28,0.05-0.57,0.06-0.85c2.16-0.55,5.22-0.69,8.72,0.14c0.08-1.41,0.08-2.83,0-4.25
	C110.97,74.39,107.91,74.3,105.68,73.74z M113.71,86.85c1.75-0.28,3.65-0.78,5.66-1.62c1.42-0.59,2.82-1.31,4.2-2.16
	c-1.79-1.34-3.53-2.3-5.09-3c-1.13-0.5-2.26-0.9-3.36-1.2C114.91,81.58,114.43,84.25,113.71,86.85z M46.75,107.19
	c-0.56,0.99-1.08,2.07-1.52,3.22c-0.57,1.5-1.08,3.26-1.41,5.29c1.5-0.37,2.93-0.83,4.29-1.39c1.91-0.79,3.53-1.72,4.91-2.7
	C50.81,110.34,48.71,108.86,46.75,107.19z M37.66,96.13c-1.84,2.55-3.35,5.74-4.28,9.61c2.46-0.36,4.56-1,6.3-1.72
	c0.93-0.39,1.8-0.82,2.62-1.28C40.56,100.72,39,98.51,37.66,96.13z M33.69,86.41c-0.67-2.5-1.09-5.03-1.28-7.55
	c-0.9,0.25-1.82,0.56-2.75,0.95c-1.64,0.68-3.45,1.64-5.32,2.98C27.56,84.76,30.72,85.9,33.69,86.41z M33.83,64.59
	c-1.75,0.28-3.65,0.78-5.66,1.62c-1.42,0.59-2.82,1.31-4.2,2.16c1.79,1.34,3.53,2.3,5.09,3c1.13,0.5,2.26,0.9,3.36,1.2
	C32.62,69.86,33.1,67.19,33.83,64.59z M100.78,44.25c0.56-0.99,1.08-2.06,1.52-3.22c0.57-1.5,1.09-3.26,1.41-5.29
	c-1.5,0.37-2.93,0.83-4.29,1.39c-1.91,0.79-3.53,1.72-4.91,2.7C96.73,41.1,98.83,42.58,100.78,44.25z M115.13,72.57
	c0.9-0.25,1.82-0.56,2.75-0.95c0,0,0,0,0,0c1.64-0.68,3.45-1.64,5.32-2.98c-3.23-1.96-6.39-3.1-9.36-3.62
	C114.51,67.53,114.94,70.05,115.13,72.57z M109.88,55.31c1.84-2.55,3.35-5.74,4.28-9.61c-2.46,0.36-4.56,1-6.3,1.72
	c-0.93,0.39-1.8,0.82-2.62,1.28C106.97,50.72,108.53,52.93,109.88,55.31z M85.75,36.03c2.77,0.84,5.46,1.97,8,3.36
	c1.49-1.1,3.26-2.13,5.37-3.01c1.49-0.62,3.06-1.12,4.72-1.5c0.72-5.48,0.06-12.75-4.16-21.74c-0.82,0.3-1.63,0.61-2.41,0.94
	c-7.63,3.16-12.51,7.19-15.63,11.13C84.14,29.18,85.31,32.88,85.75,36.03z M81.11,25.89c-2.29,3.07-3.53,6.05-4.21,8.47
	c2.71,0.21,5.39,0.69,7.99,1.41C84.44,32.88,83.35,29.51,81.11,25.89z M67.14,25.51c2.37,3.21,3.63,6.32,4.31,8.8
	c1.56-0.09,3.11-0.09,4.65,0c0.7-2.6,2.04-5.83,4.56-9.15c-1.61-2.46-3.75-5.03-6.58-7.64C71.05,20.25,68.8,22.94,67.14,25.51z
	 M66.67,26.24c-2.09,3.42-3.15,6.62-3.62,9.41c2.51-0.67,5.04-1.1,7.57-1.29C69.98,32.05,68.81,29.2,66.67,26.24z M43.62,34.43
	c4.57,1.03,8,2.81,10.54,4.73c1.2-0.64,2.45-1.23,3.73-1.77c1.42-0.59,2.86-1.09,4.31-1.51c0.46-3.04,1.6-6.56,3.96-10.34
	c-3.41-4.44-9.04-9.05-18.31-12.4C43.77,21.85,42.98,28.94,43.62,34.43z M46.74,44.25c2.03-1.74,4.25-3.31,6.64-4.66
	c-2.38-1.74-5.53-3.33-9.66-4.31C44.29,39.09,45.52,42.08,46.74,44.25z M33.58,44.91c3.92,0.59,7.01,1.88,9.26,3.18
	c1.03-1.15,2.13-2.25,3.29-3.29c-1.32-2.31-2.67-5.54-3.24-9.69c-2.88-0.6-6.21-0.9-10.06-0.75C32.63,38.42,32.94,41.91,33.58,44.91
	z M37.87,54.97c1.28-2.21,2.76-4.32,4.43-6.27c-2.11-1.19-4.95-2.37-8.53-2.95C34.71,49.66,36.23,52.67,37.87,54.97z M23.29,67.85
	c1.5-0.94,3.03-1.74,4.57-2.38c2.22-0.92,4.31-1.45,6.22-1.72c0.84-2.77,1.97-5.46,3.36-8c-1.83-2.47-3.52-5.78-4.53-10.13
	c-5.06-0.66-11.5-0.12-19.35,3.13c-0.78,0.32-1.58,0.68-2.37,1.05C14.48,58.89,19,64.45,23.29,67.85z M23.59,82.34
	c2.02-1.49,3.99-2.54,5.75-3.27c1.02-0.42,2.03-0.76,3.01-1.03c-0.09-1.56-0.09-3.11,0-4.65c-1.17-0.32-2.38-0.74-3.63-1.3
	c-1.69-0.75-3.56-1.8-5.49-3.28c-2.64,1.72-5.21,3.93-7.67,6.59C18.23,78.35,20.93,80.63,23.59,82.34z M32.5,105.85
	c0.72-3.18,1.86-6.05,3.42-8.6c0.42-0.69,0.86-1.33,1.3-1.92c-0.65-1.2-1.24-2.45-1.77-3.74c-0.59-1.43-1.09-2.87-1.52-4.33
	c-3.25-0.51-6.74-1.75-10.29-3.95c-4.42,3.39-9.08,9.01-12.44,18.32C19.92,105.73,27.03,106.49,32.5,105.85z M42.97,115.89
	c0.33-2.22,0.88-4.15,1.51-5.77c0.49-1.27,1.05-2.43,1.65-3.48c-1.15-1.03-2.25-2.12-3.29-3.29c-0.88,0.51-1.83,0.98-2.85,1.4
	c0,0,0,0,0,0c-1.87,0.77-4.13,1.45-6.8,1.82c-0.63,2.97-0.94,6.32-0.79,10.08C36.21,116.85,39.74,116.59,42.97,115.89z
	 M61.78,115.41c-2.77-0.84-5.46-1.97-8-3.36c-1.49,1.1-3.26,2.13-5.37,3.01c0,0,0,0,0,0c-1.49,0.62-3.06,1.12-4.72,1.5
	c-0.72,5.48-0.06,12.75,4.16,21.74c0.82-0.3,1.63-0.61,2.42-0.94c7.63-3.16,12.51-7.19,15.63-11.13
	C63.39,122.26,62.23,118.56,61.78,115.41z M66.42,125.55c2.29-3.07,3.53-6.05,4.21-8.47c-2.71-0.21-5.39-0.69-7.99-1.41
	C63.09,118.57,64.19,121.93,66.42,125.55z M80.4,125.93c-2.37-3.21-3.63-6.32-4.31-8.8c-1.56,0.09-3.11,0.09-4.65,0
	c-0.7,2.6-2.04,5.83-4.56,9.15c1.61,2.46,3.75,5.03,6.58,7.64C76.48,131.19,78.73,128.5,80.4,125.93z M80.86,125.2
	c2.09-3.42,3.15-6.62,3.62-9.41c-2.51,0.67-5.04,1.1-7.57,1.29C77.55,119.39,78.73,122.24,80.86,125.2z M103.92,117.01
	c-4.57-1.03-8-2.81-10.54-4.73c-1.2,0.64-2.45,1.23-3.73,1.77c-1.42,0.59-2.86,1.09-4.31,1.51c-0.46,3.04-1.6,6.56-3.96,10.34
	c3.41,4.44,9.04,9.05,18.31,12.4C103.76,129.6,104.55,122.5,103.92,117.01z M100.79,107.19c-2.03,1.74-4.25,3.31-6.64,4.66
	c2.38,1.74,5.53,3.33,9.66,4.31C103.25,112.35,102.02,109.36,100.79,107.19z M113.95,106.53c-3.92-0.59-7.01-1.88-9.26-3.18
	c-1.03,1.15-2.13,2.25-3.29,3.29c1.32,2.31,2.67,5.54,3.24,9.69c2.88,0.6,6.21,0.9,10.06,0.75
	C114.9,113.02,114.59,109.53,113.95,106.53z M109.66,96.47c-1.28,2.21-2.76,4.32-4.43,6.27c2.11,1.19,4.95,2.37,8.53,2.95
	C112.82,101.79,111.3,98.77,109.66,96.47z M124.25,83.6c-1.5,0.94-3.03,1.74-4.57,2.38c0,0,0,0,0,0c-2.22,0.92-4.31,1.45-6.22,1.72
	c-0.84,2.77-1.97,5.46-3.36,8c1.83,2.47,3.52,5.78,4.53,10.13c5.06,0.66,11.5,0.12,19.35-3.13c0,0,0,0,0,0
	c0.78-0.32,1.58-0.67,2.37-1.05C133.05,92.55,128.53,86.99,124.25,83.6z M123.94,69.1c-2.02,1.49-3.98,2.54-5.75,3.27c0,0,0,0,0,0
	c-1.02,0.42-2.03,0.76-3.01,1.02c0.09,1.56,0.09,3.11,0,4.65c1.17,0.32,2.38,0.74,3.63,1.3c1.69,0.75,3.56,1.8,5.49,3.28
	c2.64-1.72,5.21-3.93,7.67-6.59C129.3,73.09,126.6,70.81,123.94,69.1z M136.34,49.8c-8.72-4.09-15.84-4.85-21.3-4.22
	c-0.72,3.18-1.86,6.05-3.42,8.6c-0.42,0.69-0.86,1.33-1.3,1.92c0.65,1.2,1.24,2.45,1.77,3.74c0.59,1.43,1.09,2.87,1.52,4.32
	c3.25,0.51,6.74,1.75,10.29,3.95C128.32,64.74,132.97,59.12,136.34,49.8z M118.53,59.84c-0.12-0.32-0.48-0.48-0.79-0.36
	c-0.31,0.12-0.47,0.46-0.35,0.77c0.1,0.31,0.44,0.48,0.76,0.37C118.47,60.51,118.64,60.17,118.53,59.84z M119.46,62.77
	c-0.09-0.33-0.42-0.52-0.74-0.42c-0.32,0.1-0.51,0.43-0.42,0.75c0.09,0.32,0.42,0.51,0.74,0.42
	C119.36,63.44,119.55,63.1,119.46,62.77z M120.2,65.76c-0.07-0.33-0.4-0.54-0.72-0.47c-0.33,0.08-0.53,0.4-0.46,0.72
	c0.07,0.32,0.39,0.53,0.72,0.47C120.07,66.42,120.27,66.09,120.2,65.76z M120.76,68.78c-0.06-0.34-0.37-0.56-0.7-0.51
	s-0.55,0.36-0.5,0.69c0.06,0.32,0.35,0.56,0.69,0.51C120.57,69.43,120.82,69.12,120.76,68.78z M121.11,71.84
	c-0.02-0.34-0.32-0.59-0.65-0.56c-0.33,0.03-0.57,0.32-0.56,0.66c0.02,0.33,0.31,0.58,0.65,0.56
	C120.88,72.47,121.13,72.18,121.11,71.84z M121.26,74.91c-0.01-0.34-0.28-0.61-0.62-0.6c-0.34,0.01-0.6,0.29-0.6,0.62
	c0.01,0.33,0.28,0.6,0.62,0.6C120.99,75.53,121.26,75.25,121.26,74.91z M121.21,77.99c0.01-0.34-0.25-0.63-0.59-0.64
	s-0.62,0.25-0.63,0.58c-0.01,0.33,0.24,0.61,0.58,0.64C120.91,78.59,121.21,78.33,121.21,77.99z M120.96,81.06
	c0.05-0.34-0.2-0.64-0.53-0.67c-0.33-0.03-0.62,0.21-0.67,0.53c-0.04,0.33,0.19,0.63,0.52,0.67
	C120.62,81.63,120.92,81.39,120.96,81.06z M120.51,84.1c0.06-0.34-0.16-0.65-0.49-0.71c-0.33-0.05-0.65,0.17-0.7,0.49
	c-0.06,0.33,0.16,0.64,0.49,0.71C120.14,84.65,120.45,84.43,120.51,84.1z M119.88,87.11c0.08-0.33-0.13-0.66-0.45-0.74
	c-0.33-0.08-0.65,0.12-0.72,0.45c-0.07,0.32,0.11,0.65,0.44,0.73C119.46,87.63,119.8,87.44,119.88,87.11z M119.04,90.07
	c0.11-0.32-0.07-0.66-0.39-0.76c-0.32-0.1-0.66,0.08-0.76,0.39c-0.1,0.31,0.07,0.65,0.39,0.76
	C118.58,90.57,118.93,90.39,119.04,90.07z M118.01,92.96c0.12-0.32-0.03-0.67-0.35-0.79c-0.31-0.12-0.67,0.04-0.78,0.35
	c-0.12,0.31,0.04,0.66,0.35,0.79C117.53,93.44,117.89,93.28,118.01,92.96z M116.81,95.8c0.14-0.31,0-0.67-0.3-0.81
	c-0.31-0.14-0.66,0-0.8,0.3c-0.13,0.3-0.02,0.66,0.29,0.8C116.29,96.23,116.67,96.11,116.81,95.8z M115.41,98.54
	c0.17-0.3,0.06-0.66-0.24-0.82c-0.29-0.16-0.67-0.05-0.83,0.24c-0.16,0.29-0.06,0.66,0.23,0.82S115.25,98.84,115.41,98.54z
	 M113.85,101.19c0.18-0.29,0.1-0.66-0.19-0.84c-0.29-0.18-0.66-0.09-0.84,0.19c-0.18,0.28-0.09,0.66,0.19,0.84
	C113.29,101.56,113.67,101.48,113.85,101.19z M112.13,103.74c0.19-0.28,0.13-0.66-0.14-0.86c-0.27-0.19-0.65-0.13-0.84,0.14
	c-0.19,0.27-0.15,0.64,0.12,0.84C111.54,104.06,111.93,104.01,112.13,103.74z M110.23,106.16c0.22-0.26,0.19-0.64-0.07-0.85
	c-0.26-0.21-0.65-0.18-0.86,0.07c-0.21,0.25-0.18,0.63,0.07,0.85C109.62,106.45,110.01,106.42,110.23,106.16z M108.18,108.45
	c0.23-0.25,0.22-0.63-0.02-0.86c-0.25-0.23-0.63-0.22-0.86,0.03c-0.23,0.24-0.22,0.63,0.02,0.86
	C107.57,108.71,107.95,108.7,108.18,108.45z M106,110.62c0.25-0.24,0.26-0.63,0.03-0.87c-0.23-0.24-0.61-0.25-0.85-0.02
	c-0.24,0.22-0.27,0.6-0.04,0.85C105.36,110.83,105.75,110.85,106,110.62z M103.67,112.63c0.27-0.21,0.31-0.59,0.09-0.85
	c-0.21-0.26-0.6-0.3-0.86-0.09c-0.26,0.2-0.3,0.58-0.09,0.85C103.02,112.79,103.4,112.84,103.67,112.63z M101.21,114.48
	c0.28-0.2,0.34-0.58,0.14-0.85c-0.2-0.27-0.58-0.33-0.84-0.14c-0.27,0.19-0.33,0.57-0.14,0.85
	C100.56,114.61,100.94,114.68,101.21,114.48z M98.65,116.18c0.29-0.18,0.37-0.56,0.19-0.84c-0.18-0.28-0.55-0.37-0.83-0.19
	c-0.27,0.18-0.38,0.54-0.2,0.83C97.98,116.26,98.37,116.37,98.65,116.18z M95.98,117.7c0.31-0.15,0.42-0.52,0.25-0.82
	c-0.16-0.29-0.52-0.4-0.82-0.25c-0.29,0.15-0.41,0.51-0.26,0.81C95.3,117.74,95.67,117.85,95.98,117.7z M93.21,119.04
	c0.31-0.14,0.45-0.5,0.31-0.8c-0.14-0.3-0.5-0.44-0.8-0.31c-0.3,0.13-0.44,0.49-0.31,0.8C92.54,119.04,92.9,119.18,93.21,119.04z
	 M90.36,120.21c0.32-0.12,0.48-0.47,0.35-0.79c-0.12-0.31-0.47-0.47-0.78-0.35c-0.31,0.12-0.47,0.47-0.35,0.79
	C89.7,120.18,90.05,120.33,90.36,120.21z M87.45,121.21c0.32-0.11,0.5-0.45,0.4-0.77s-0.44-0.49-0.75-0.39
	c-0.32,0.1-0.5,0.42-0.41,0.75C86.78,121.11,87.13,121.3,87.45,121.21z M84.48,121.99c0.33-0.07,0.54-0.39,0.46-0.72
	c-0.08-0.32-0.41-0.53-0.73-0.46c-0.32,0.07-0.53,0.39-0.46,0.72C83.82,121.86,84.15,122.06,84.48,121.99z M81.46,122.59
	c0.34-0.06,0.56-0.37,0.5-0.7c-0.06-0.33-0.37-0.55-0.7-0.5c-0.33,0.05-0.55,0.37-0.5,0.7C80.81,122.42,81.13,122.64,81.46,122.59z
	 M78.41,123c0.34-0.04,0.58-0.34,0.54-0.67c-0.04-0.33-0.33-0.57-0.66-0.53c-0.33,0.04-0.57,0.33-0.55,0.66
	C77.78,122.78,78.07,123.04,78.41,123z M75.34,123.2c0.34,0,0.6-0.29,0.59-0.63c-0.02-0.33-0.3-0.59-0.63-0.59
	c-0.33,0.01-0.59,0.28-0.59,0.62C74.72,122.94,75,123.2,75.34,123.2z M72.27,123.19c0.34,0.01,0.62-0.25,0.63-0.59
	c0.01-0.34-0.26-0.62-0.59-0.63c-0.33-0.01-0.61,0.25-0.63,0.59C71.66,122.9,71.93,123.18,72.27,123.19z M69.2,123
	c0.34,0.03,0.64-0.22,0.66-0.56c0.03-0.33-0.22-0.63-0.55-0.65c-0.33-0.02-0.63,0.21-0.66,0.54C68.61,122.67,68.86,122.98,69.2,123z
	 M66.15,122.6c0.33,0.06,0.65-0.17,0.7-0.5c0.05-0.33-0.18-0.63-0.5-0.7c-0.33-0.06-0.64,0.16-0.7,0.49S65.81,122.54,66.15,122.6z
	 M63.13,122c0.33,0.08,0.66-0.13,0.73-0.46c0.07-0.33-0.13-0.65-0.46-0.73c-0.32-0.07-0.65,0.13-0.73,0.46
	C62.59,121.6,62.8,121.93,63.13,122z M60.15,121.22c0.33,0.09,0.67-0.09,0.76-0.42c0.09-0.32-0.09-0.66-0.41-0.75
	c-0.32-0.08-0.65,0.08-0.75,0.4C59.65,120.78,59.83,121.14,60.15,121.22z M57.24,120.24c0.32,0.12,0.67-0.03,0.78-0.35
	c0.11-0.31-0.05-0.66-0.36-0.78c-0.31-0.12-0.66,0.04-0.78,0.35C56.76,119.77,56.92,120.12,57.24,120.24z M54.39,119.07
	c0.31,0.14,0.67,0,0.8-0.31c0.13-0.31-0.01-0.67-0.31-0.8c-0.3-0.13-0.66,0-0.8,0.31C53.94,118.58,54.08,118.94,54.39,119.07z
	 M51.62,117.74c0.3,0.15,0.67,0.03,0.83-0.27c0.15-0.3,0.03-0.66-0.26-0.81c-0.3-0.15-0.65-0.05-0.82,0.25
	C51.21,117.2,51.32,117.59,51.62,117.74z M48.95,116.21c0.29,0.18,0.66,0.09,0.83-0.2c0.17-0.29,0.08-0.66-0.2-0.84
	c-0.28-0.18-0.65-0.09-0.83,0.2C48.58,115.66,48.66,116.03,48.95,116.21z M46.38,114.52c0.28,0.19,0.66,0.13,0.85-0.15
	c0.19-0.28,0.12-0.65-0.15-0.84c-0.27-0.19-0.65-0.12-0.85,0.15C46.04,113.95,46.1,114.33,46.38,114.52z M43.92,112.68
	c0.27,0.21,0.66,0.16,0.86-0.1c0.21-0.26,0.16-0.64-0.1-0.84c-0.26-0.21-0.63-0.18-0.85,0.08
	C43.62,112.07,43.66,112.47,43.92,112.68z M41.6,110.66c0.25,0.23,0.63,0.22,0.85-0.03c0.22-0.25,0.21-0.64-0.03-0.86
	s-0.62-0.21-0.85,0.03C41.33,110.05,41.35,110.43,41.6,110.66z M39.4,108.51c0.24,0.25,0.62,0.25,0.86,0.02
	c0.24-0.24,0.25-0.62,0.02-0.86s-0.62-0.25-0.86-0.02C39.17,107.88,39.16,108.26,39.4,108.51z M37.34,106.22
	c0.22,0.26,0.61,0.29,0.87,0.07c0.25-0.22,0.28-0.6,0.07-0.85c-0.21-0.25-0.58-0.3-0.85-0.08
	C37.17,105.57,37.12,105.96,37.34,106.22z M35.45,103.79c0.2,0.28,0.57,0.34,0.84,0.14c0.27-0.2,0.33-0.58,0.14-0.85
	c-0.19-0.27-0.57-0.33-0.84-0.14C35.32,103.14,35.26,103.52,35.45,103.79z M33.72,101.25c0.18,0.29,0.56,0.37,0.84,0.19
	c0.28-0.18,0.36-0.56,0.18-0.84c-0.18-0.28-0.55-0.36-0.84-0.19S33.54,100.97,33.72,101.25z M32.15,98.61
	c0.17,0.3,0.54,0.4,0.83,0.24c0.29-0.17,0.39-0.53,0.23-0.82c-0.17-0.28-0.53-0.4-0.82-0.24C32.1,97.94,31.98,98.31,32.15,98.61z
	 M30.76,95.87c0.13,0.31,0.51,0.44,0.81,0.29c0.3-0.15,0.42-0.5,0.29-0.81c-0.13-0.3-0.49-0.44-0.8-0.3
	C30.76,95.19,30.62,95.55,30.76,95.87z M29.55,93.04c0.12,0.32,0.47,0.47,0.78,0.35c0.31-0.13,0.47-0.48,0.35-0.79
	c-0.12-0.31-0.47-0.46-0.78-0.35C29.59,92.37,29.43,92.72,29.55,93.04z M28.52,90.14c0.11,0.32,0.45,0.5,0.77,0.39
	c0.32-0.11,0.49-0.45,0.39-0.76c-0.1-0.31-0.45-0.49-0.77-0.39C28.59,89.47,28.42,89.82,28.52,90.14z M27.67,87.18
	c0.09,0.33,0.42,0.53,0.75,0.44c0.32-0.09,0.52-0.41,0.43-0.73c-0.09-0.32-0.4-0.52-0.73-0.44C27.8,86.52,27.58,86.85,27.67,87.18z
	 M27.03,84.18c0.06,0.34,0.37,0.56,0.7,0.49c0.32-0.06,0.55-0.38,0.49-0.71c-0.05-0.33-0.37-0.55-0.7-0.49
	C27.19,83.52,26.97,83.84,27.03,84.18z M26.58,81.13c0.04,0.34,0.34,0.58,0.67,0.53c0.33-0.04,0.57-0.34,0.53-0.67
	s-0.34-0.57-0.67-0.53C26.78,80.49,26.54,80.79,26.58,81.13z M26.32,78.07c0.02,0.34,0.31,0.6,0.65,0.58
	c0.33-0.02,0.59-0.31,0.57-0.64c-0.03-0.33-0.3-0.59-0.63-0.58C26.56,77.44,26.29,77.73,26.32,78.07z M26.27,74.99
	c-0.02,0.34,0.26,0.62,0.6,0.62c0.33,0,0.6-0.27,0.62-0.6c0.01-0.33-0.25-0.61-0.59-0.62C26.56,74.38,26.28,74.65,26.27,74.99z
	 M26.43,71.92c-0.03,0.34,0.22,0.63,0.56,0.65c0.33,0.02,0.63-0.23,0.65-0.56c0.03-0.33-0.22-0.62-0.56-0.65
	C26.75,71.33,26.45,71.58,26.43,71.92z M26.77,68.86c-0.04,0.34,0.19,0.65,0.52,0.69c0.33,0.04,0.64-0.19,0.68-0.51
	c0.04-0.33-0.18-0.63-0.51-0.69C27.13,68.3,26.81,68.52,26.77,68.86z M27.31,65.83c-0.08,0.33,0.13,0.65,0.47,0.72
	c0.33,0.06,0.64-0.15,0.72-0.47c0.07-0.32-0.13-0.64-0.46-0.72C27.72,65.29,27.39,65.5,27.31,65.83z M28.06,62.85
	c-0.09,0.33,0.1,0.66,0.42,0.75c0.32,0.09,0.66-0.1,0.75-0.42c0.09-0.32-0.1-0.65-0.42-0.75C28.48,62.33,28.15,62.52,28.06,62.85z
	 M28.98,59.92c-0.11,0.32,0.06,0.67,0.38,0.78c0.32,0.11,0.66-0.06,0.76-0.37c0.1-0.32-0.05-0.66-0.36-0.77
	C29.45,59.43,29.08,59.59,28.98,59.92z M30.1,57.05c-0.14,0.31,0,0.67,0.32,0.8c0.31,0.13,0.67-0.02,0.8-0.32
	c0.13-0.3-0.01-0.66-0.31-0.79C30.6,56.6,30.24,56.74,30.1,57.05z M31.4,54.27c-0.15,0.3-0.03,0.67,0.27,0.82
	c0.3,0.15,0.67,0.03,0.81-0.27c0.15-0.3,0.03-0.66-0.27-0.82C31.92,53.84,31.56,53.96,31.4,54.27z M32.87,51.56
	c-0.17,0.3-0.07,0.67,0.23,0.84c0.29,0.17,0.66,0.07,0.82-0.22c0.16-0.29,0.08-0.65-0.21-0.83C33.43,51.18,33.04,51.27,32.87,51.56z
	 M34.53,48.97c-0.19,0.28-0.13,0.66,0.15,0.84c0.28,0.18,0.66,0.11,0.85-0.16c0.19-0.27,0.12-0.65-0.15-0.84
	C35.1,48.62,34.72,48.69,34.53,48.97z M36.34,46.48c-0.21,0.27-0.16,0.65,0.11,0.85c0.27,0.2,0.65,0.15,0.85-0.11
	c0.2-0.26,0.15-0.64-0.11-0.85C36.93,46.17,36.55,46.21,36.34,46.48z M38.3,44.11c-0.22,0.26-0.19,0.65,0.06,0.87
	c0.25,0.22,0.63,0.19,0.85-0.06c0.22-0.25,0.21-0.62-0.04-0.85C38.92,43.85,38.53,43.86,38.3,44.11z M40.43,41.89
	c-0.24,0.24-0.25,0.62-0.01,0.85c0.24,0.23,0.63,0.24,0.86,0.01c0.24-0.23,0.24-0.61,0.01-0.85C41.06,41.66,40.67,41.65,40.43,41.89
	z M42.69,39.8c-0.26,0.22-0.28,0.61-0.06,0.86c0.22,0.25,0.61,0.28,0.85,0.06c0.25-0.22,0.28-0.6,0.06-0.86
	C43.33,39.61,42.94,39.58,42.69,39.8z M45.07,37.86c-0.27,0.21-0.32,0.6-0.11,0.86c0.21,0.26,0.58,0.31,0.84,0.11
	c0.26-0.2,0.32-0.57,0.12-0.84C45.73,37.72,45.34,37.65,45.07,37.86z M47.59,36.09c-0.29,0.18-0.37,0.56-0.18,0.84
	c0.19,0.27,0.57,0.36,0.84,0.18c0.28-0.18,0.36-0.55,0.18-0.83C48.25,35.99,47.87,35.91,47.59,36.09z M50.21,34.49
	c-0.3,0.17-0.4,0.54-0.23,0.83c0.17,0.29,0.54,0.39,0.83,0.23c0.29-0.16,0.39-0.53,0.23-0.83S50.51,34.32,50.21,34.49z M52.93,33.05
	c-0.3,0.15-0.43,0.52-0.28,0.82c0.15,0.3,0.51,0.42,0.81,0.27c0.29-0.15,0.42-0.51,0.28-0.81C53.6,33.02,53.23,32.89,52.93,33.05z
	 M55.73,31.78c-0.32,0.12-0.46,0.5-0.33,0.8c0.13,0.31,0.48,0.44,0.79,0.32c0.31-0.12,0.46-0.47,0.34-0.78
	C56.41,31.82,56.05,31.66,55.73,31.78z M58.62,30.72c-0.32,0.11-0.5,0.45-0.38,0.76c0.11,0.32,0.46,0.49,0.77,0.39
	c0.31-0.1,0.49-0.45,0.38-0.76C59.29,30.78,58.94,30.61,58.62,30.72z M61.56,29.83c-0.33,0.09-0.52,0.42-0.43,0.75
	c0.09,0.32,0.42,0.51,0.74,0.43c0.32-0.09,0.51-0.42,0.43-0.75S61.89,29.74,61.56,29.83z M64.56,29.12
	c-0.33,0.07-0.55,0.4-0.48,0.73c0.07,0.33,0.39,0.54,0.71,0.47c0.32-0.08,0.54-0.37,0.48-0.71C65.21,29.28,64.89,29.04,64.56,29.12z
	 M67.59,28.62c-0.34,0.04-0.57,0.34-0.52,0.68c0.05,0.33,0.35,0.56,0.68,0.52c0.33-0.04,0.56-0.34,0.52-0.67
	C68.24,28.82,67.93,28.58,67.59,28.62z M70.65,28.33c-0.34,0.02-0.59,0.31-0.57,0.65s0.32,0.59,0.65,0.57
	c0.33-0.02,0.58-0.31,0.57-0.65C71.28,28.56,70.99,28.3,70.65,28.33z M73.73,28.22c-0.34,0.01-0.61,0.28-0.61,0.62
	c0.01,0.34,0.28,0.6,0.61,0.6c0.33-0.01,0.6-0.27,0.61-0.61C74.34,28.49,74.07,28.21,73.73,28.22z M76.8,28.32
	c-0.34-0.03-0.63,0.23-0.65,0.57c-0.02,0.33,0.24,0.61,0.57,0.64c0.33,0.03,0.62-0.22,0.64-0.56C77.4,28.64,77.14,28.35,76.8,28.32z
	 M79.86,28.62c-0.34-0.04-0.64,0.19-0.68,0.52c-0.04,0.33,0.2,0.64,0.52,0.68c0.33,0.04,0.63-0.19,0.68-0.52
	C80.44,28.97,80.2,28.67,79.86,28.62z M82.9,29.11c-0.34-0.06-0.66,0.16-0.72,0.49c-0.06,0.33,0.16,0.64,0.48,0.7
	c0.33,0.05,0.64-0.15,0.71-0.48C83.45,29.5,83.24,29.17,82.9,29.11z M85.9,29.81c-0.33-0.1-0.66,0.1-0.74,0.43
	c-0.08,0.32,0.11,0.65,0.43,0.74c0.32,0.09,0.65-0.1,0.74-0.42C86.42,30.23,86.22,29.9,85.9,29.81z M88.84,30.69
	c-0.32-0.11-0.67,0.06-0.77,0.38c-0.1,0.32,0.07,0.66,0.38,0.77c0.31,0.1,0.66-0.07,0.77-0.38C89.34,31.14,89.16,30.8,88.84,30.69z
	 M91.73,31.76c-0.32-0.12-0.67,0.03-0.8,0.34c-0.12,0.31,0.03,0.66,0.34,0.78c0.31,0.11,0.66-0.01,0.79-0.33
	C92.19,32.25,92.05,31.87,91.73,31.76z M94.53,33.01c-0.31-0.15-0.67-0.03-0.81,0.28c-0.14,0.3-0.02,0.67,0.28,0.82
	c0.3,0.15,0.66,0.03,0.81-0.27C94.96,33.53,94.84,33.17,94.53,33.01z M97.25,34.45c-0.3-0.17-0.67-0.06-0.83,0.23
	c-0.16,0.29-0.06,0.66,0.23,0.83c0.29,0.16,0.66,0.06,0.83-0.23C97.65,34.99,97.55,34.62,97.25,34.45z M99.88,36.05
	c-0.29-0.18-0.67-0.1-0.85,0.18c-0.18,0.28-0.1,0.65,0.18,0.83c0.28,0.18,0.65,0.11,0.84-0.17
	C100.24,36.62,100.17,36.23,99.88,36.05z M102.39,37.82c-0.27-0.21-0.65-0.16-0.85,0.11c-0.2,0.27-0.15,0.65,0.12,0.86
	c0.26,0.2,0.64,0.15,0.85-0.11C102.72,38.42,102.66,38.03,102.39,37.82z M104.79,39.76c-0.26-0.22-0.64-0.19-0.86,0.07
	s-0.18,0.64,0.07,0.85c0.25,0.21,0.64,0.18,0.86-0.07C105.08,40.36,105.05,39.98,104.79,39.76z M107.06,41.83
	c-0.25-0.23-0.64-0.23-0.87,0.02c-0.23,0.24-0.22,0.62,0.02,0.85c0.24,0.23,0.61,0.24,0.85,0C107.3,42.46,107.3,42.07,107.06,41.83z
	 M109.18,44.06c-0.22-0.26-0.61-0.28-0.85-0.05c-0.25,0.23-0.27,0.61-0.05,0.86c0.22,0.25,0.6,0.27,0.85,0.05
	S109.4,44.32,109.18,44.06z M111.15,46.42c-0.21-0.27-0.59-0.31-0.85-0.1c-0.26,0.21-0.31,0.59-0.1,0.85
	c0.21,0.26,0.59,0.3,0.85,0.1C111.31,47.07,111.36,46.69,111.15,46.42z M112.97,48.9c-0.2-0.28-0.58-0.35-0.85-0.15
	c-0.27,0.19-0.34,0.57-0.15,0.84c0.2,0.27,0.55,0.35,0.84,0.16C113.08,49.57,113.17,49.18,112.97,48.9z M114.62,51.5
	c-0.17-0.3-0.54-0.39-0.83-0.22c-0.28,0.17-0.38,0.55-0.22,0.83c0.16,0.29,0.53,0.38,0.82,0.22S114.79,51.79,114.62,51.5z
	 M116.09,54.2c-0.15-0.3-0.52-0.42-0.82-0.27c-0.3,0.16-0.42,0.52-0.27,0.82c0.15,0.29,0.51,0.41,0.82,0.27
	C116.13,54.87,116.25,54.5,116.09,54.2z M117.4,56.98c-0.14-0.31-0.5-0.45-0.8-0.32c-0.31,0.14-0.45,0.49-0.31,0.79
	s0.49,0.44,0.8,0.32S117.54,57.29,117.4,56.98z"/>
</svg>
